<svg version="1.1" id="Layer_1" xmlns="http://www.w3.org/2000/svg" xmlns:xlink="http://www.w3.org/1999/xlink" x="0px" y="0px"
	 width="100%" viewBox="0 0 720 720" enable-background="new 0 0 720 720" xml:space="preserve">
<path fill="none" opacity="1.000000" stroke="none" 
	d="
M406.000000,721.000000 
	C272.166656,721.000000 138.833313,720.981689 5.500080,721.094238 
	C1.750547,721.097412 0.904957,720.249207 0.906598,716.499939 
	C1.010331,479.500000 1.010331,242.500000 0.906598,5.500041 
	C0.904957,1.750811 1.750811,0.904955 5.500041,0.906597 
	C242.500000,1.010344 479.500000,1.010344 716.499939,0.906597 
	C720.249207,0.904955 721.095032,1.750810 721.093445,5.500041 
	C720.989685,242.500000 720.989685,479.500000 721.093384,716.499939 
	C721.095032,720.249207 720.249634,721.098999 716.499878,721.094727 
	C613.166687,720.976379 509.833344,721.000000 406.000000,721.000000 
z"/>
<path fill="#F7E664" opacity="1.000000" stroke="none" 
	d="
M206.305496,114.332001 
	C236.303925,94.958656 268.443604,81.634842 303.059418,74.489014 
	C318.494110,71.302788 334.126038,69.444565 349.921600,68.956764 
	C373.989288,68.213516 397.858612,70.064369 421.282990,75.468536 
	C481.707947,89.409004 532.563843,119.642952 573.290710,166.524643 
	C605.621704,203.741638 626.614746,246.670074 636.453979,294.934387 
	C641.625244,320.300964 643.124207,345.931824 641.162842,371.845612 
	C637.649963,418.259064 623.970398,461.338654 598.890686,500.455139 
	C555.724304,567.781189 494.964355,610.200989 416.583099,627.037170 
	C394.842651,631.707031 372.811462,633.806885 350.652069,632.876160 
	C287.857117,630.238831 231.506287,609.755249 182.625244,569.995178 
	C134.279434,530.670471 102.261307,480.649841 86.570244,420.288452 
	C79.376984,392.616943 76.539932,364.396912 78.203514,335.921082 
	C81.527206,279.028748 100.096199,227.429901 134.259827,181.727081 
	C154.147720,155.121826 178.088516,132.660599 206.305496,114.332001 
z"/>
<path fill="#000" opacity="1.000000" stroke="none" 
	d="
M468.047607,299.933411 
	C479.264130,302.024658 490.041412,304.117981 500.840210,306.093933 
	C504.452332,306.754822 505.959534,308.407166 506.283752,312.369324 
	C508.067352,334.165985 508.461609,355.949432 507.157471,377.785187 
	C506.933319,381.537964 505.467804,383.034576 501.962250,383.683929 
	C475.627594,388.562042 449.283325,393.102173 422.551636,395.602234 
	C406.746613,397.080414 390.967590,397.215607 375.176788,397.973541 
	C370.976379,398.175171 369.286499,396.878174 369.043671,392.446289 
	C367.318604,360.961182 367.419739,329.496368 369.110168,298.012329 
	C369.384430,292.904266 371.243011,291.658447 376.109802,291.749542 
	C406.811310,292.324219 437.266296,295.474487 468.047607,299.933411 
z"/>
<path fill="#000" opacity="1.000000" stroke="none" 
	d="
M213.978363,312.225372 
	C213.792053,307.793579 215.438614,305.962158 219.649918,305.310425 
	C231.138657,303.532501 242.487488,300.819031 253.992111,299.181274 
	C281.346741,295.287140 308.804932,292.361908 336.476776,291.884399 
	C339.861084,291.825958 340.987122,293.112885 340.701996,296.262299 
	C340.567261,297.750305 340.687286,299.259491 340.609680,300.754791 
	C339.029510,331.195160 339.048676,361.638702 340.709198,392.069763 
	C340.964264,396.744324 339.505554,397.838654 334.901245,397.905121 
	C308.666199,398.283936 282.793152,394.295135 256.850616,391.493469 
	C243.187073,390.017883 229.750641,386.457977 216.200836,383.896484 
	C212.961624,383.284119 213.150253,380.738342 213.042404,378.497070 
	C212.041870,357.705566 211.693649,336.918549 213.813171,316.163422 
	C213.931335,315.006287 213.919281,313.835815 213.978363,312.225372 
z"/>
<path fill="#000" opacity="1.000000" stroke="none" 
	d="
M245.128357,508.628296 
	C264.273560,513.371399 283.232758,517.674866 302.560730,520.307190 
	C321.244812,522.851685 340.003235,524.147522 358.831543,524.569458 
	C362.139069,524.643677 363.860260,525.687988 364.916168,529.025757 
	C372.115540,551.783142 381.611023,573.447876 396.063232,592.675781 
	C399.734436,597.560059 399.715637,597.678284 393.813873,599.955933 
	C360.842590,612.680237 330.515930,606.880920 302.720886,586.183411 
	C276.139648,566.389771 258.581299,539.549316 244.846527,509.530762 
	C244.843887,508.987946 244.853897,508.811859 245.128357,508.628296 
z"/>
<path fill="#000" opacity="1.000000" stroke="none" 
	d="
M384.506714,495.539276 
	C381.101288,478.329163 377.716003,461.550598 374.535706,444.733276 
	C373.734924,440.498932 373.667389,436.130646 373.119690,431.842224 
	C372.702820,428.578033 373.958313,427.416779 377.246307,427.400269 
	C393.233429,427.319977 409.193115,426.525391 425.093445,424.821899 
	C448.069153,422.360382 471.103851,420.292938 493.634460,414.765228 
	C503.281494,412.398346 503.558807,412.611511 501.967804,422.263580 
	C498.908905,440.820740 494.352661,459.016144 488.572418,476.917542 
	C487.707855,479.595001 486.312927,481.001160 483.643463,481.803284 
	C457.599976,489.628754 431.059082,494.812225 403.952850,497.051331 
	C398.979736,497.462158 393.999817,497.813873 389.016602,498.066589 
	C387.265198,498.155426 385.198242,498.476532 384.506714,495.539276 
z"/>
<path fill="#000" opacity="1.000000" stroke="none" 
	d="
M354.046722,498.445984 
	C313.924591,497.410095 274.999695,491.327850 237.116837,478.935120 
	C233.028763,477.597778 231.090759,475.485687 229.836197,471.375610 
	C224.271576,453.145630 220.270935,434.582214 217.026413,415.421509 
	C221.000626,412.509186 224.911911,414.991699 228.550781,415.755066 
	C243.306442,418.850525 258.217133,420.589081 273.135101,422.584869 
	C294.709106,425.471130 316.361725,426.176392 338.037781,426.997772 
	C343.135376,427.190918 344.569061,428.313202 344.946899,433.428467 
	C346.451080,453.790222 351.290039,473.573425 355.221436,493.514587 
	C355.554047,495.201721 355.731964,496.808105 354.046722,498.445984 
z"/>
<path fill="#000" opacity="1.000000" stroke="none" 
	d="
M384.477173,98.443466 
	C393.990540,101.211578 394.161652,101.318573 389.273621,109.136360 
	C376.942596,128.858215 368.363098,150.174255 361.909454,172.420349 
	C361.048370,175.388626 359.763000,177.146988 356.089203,177.179916 
	C318.677155,177.514984 281.803375,182.091034 244.825348,192.107742 
	C248.324295,183.499878 252.526749,175.973526 256.924957,168.563675 
	C270.571014,145.573685 287.073700,125.091423 309.880890,110.531761 
	C332.791595,95.906013 357.471161,90.910194 384.477173,98.443466 
z"/>
<path fill="#000" opacity="1.000000" stroke="none" 
	d="
M348.460938,232.412003 
	C345.756805,240.509842 346.065704,248.618347 344.986816,256.519623 
	C344.447815,260.466949 342.965820,262.239502 338.666473,262.354614 
	C308.165100,263.171051 277.805786,265.879730 247.598999,270.133423 
	C239.709122,271.244507 231.945282,273.250671 224.123672,274.846436 
	C220.886795,275.506836 218.600784,276.230621 219.695892,270.884949 
	C222.758453,255.935226 226.577560,241.212433 231.006470,226.628098 
	C231.758881,224.150391 232.984573,222.578186 235.771896,221.683136 
	C272.509277,209.886185 310.230896,204.170578 348.715790,203.066360 
	C354.435547,202.902237 354.198730,202.979126 353.001953,208.467270 
	C351.302094,216.262451 349.998566,224.144043 348.460938,232.412003 
z"/>
<path fill="#000" opacity="1.000000" stroke="none" 
	d="
M384.621063,204.102951 
	C419.129120,205.351547 452.388184,211.577209 484.919861,221.910477 
	C487.576813,222.754425 488.426819,224.448563 489.183289,226.787369 
	C494.104767,242.003311 497.855133,257.509521 500.951538,273.580872 
	C498.782227,276.017975 496.179718,275.156952 493.857788,274.689026 
	C480.382324,271.973389 466.934998,268.849274 453.233887,267.787750 
	C433.584839,266.265381 414.157928,262.303558 394.302460,262.836639 
	C388.563812,262.990723 382.697357,262.850311 376.913788,262.178894 
	C374.061646,261.847748 372.754242,260.670715 373.260986,257.615540 
	C375.643463,243.252075 378.239990,228.926804 380.939453,214.621216 
	C381.606140,211.088211 381.750977,207.317139 384.621063,204.102951 
z"/>
<path fill="#000" opacity="1.000000" stroke="none" 
	d="
M122.150360,442.260620 
	C147.409210,465.731110 176.157547,482.744141 207.641937,495.291260 
	C210.804825,496.551758 211.800888,498.799408 212.800705,501.414490 
	C222.749695,527.436768 235.715958,551.784485 253.036392,573.693787 
	C256.797760,578.451660 260.832825,582.993103 265.440186,588.463440 
	C249.616455,582.135498 235.451675,574.840515 222.020401,566.130920 
	C176.095215,536.350342 142.998749,495.954803 122.273338,445.354340 
	C122.086555,444.898315 122.029945,444.388947 121.873520,443.531250 
	C121.774513,442.826660 121.714539,442.495270 122.150360,442.260620 
z"/>
<path fill="#000" opacity="1.000000" stroke="none" 
	d="
M595.247620,254.207581 
	C570.497925,232.061096 542.348816,216.271881 511.929779,204.271423 
	C509.712433,203.396667 507.928436,202.599930 506.935425,200.030350 
	C494.835938,168.721634 478.661407,139.843674 455.720886,115.055420 
	C455.529968,114.849129 455.507843,114.486626 455.005249,113.044792 
	C520.880554,141.218231 567.904968,187.047104 596.135010,252.470657 
	C596.389404,253.436111 596.210022,253.904755 595.247620,254.207581 
z"/>
<path fill="#000" opacity="1.000000" stroke="none" 
	d="
M123.651909,254.218628 
	C127.990356,241.335205 134.208252,229.869598 141.012695,218.774551 
	C169.970337,171.557297 209.961899,136.978226 260.822784,115.001938 
	C261.687164,114.628433 262.613525,114.398369 264.237335,113.861000 
	C262.178345,118.234833 258.863586,120.745148 256.340179,123.809479 
	C238.121567,145.933426 224.397385,170.640213 214.066422,197.269226 
	C212.501404,201.303207 210.257065,203.513306 206.193069,205.121796 
	C176.418121,216.906433 148.911987,232.524567 124.882751,254.467682 
	C124.269188,254.675598 123.933640,254.697891 123.651909,254.218628 
z"/>
<path fill="#000" opacity="1.000000" stroke="none" 
	d="
M456.198975,586.818604 
	C478.090820,562.140808 494.118652,534.324524 506.020294,504.027924 
	C506.983398,501.576294 508.531128,500.521881 510.866119,499.634399 
	C540.791138,488.260315 568.660950,473.317322 592.827087,452.014099 
	C593.301514,451.595886 593.905945,451.325134 594.851807,451.416016 
	C566.938110,514.473694 521.679810,560.079590 457.582184,587.175293 
	C456.901978,587.245544 456.586060,587.266907 456.198975,586.818604 
z"/>
<path fill="#000" opacity="1.000000" stroke="none" 
	d="
M520.489014,459.471069 
	C524.603882,442.922424 527.792664,426.613190 529.893005,410.106628 
	C530.241516,407.367615 531.407898,406.318329 534.071045,405.513977 
	C558.272888,398.204529 581.778442,389.201477 603.297485,375.668365 
	C606.902222,373.401428 610.208191,370.659485 614.380920,367.603302 
	C614.202942,374.622864 612.073181,380.302734 609.868164,385.875641 
	C600.767334,408.876892 584.664490,426.333801 565.404114,441.171814 
	C552.312439,451.257538 538.050598,459.448700 523.133057,466.515167 
	C521.811707,467.141083 520.424561,467.628204 518.774841,468.298981 
	C518.416321,465.071106 519.948547,462.562805 520.489014,459.471069 
z"/>
<path fill="#000" opacity="1.000000" stroke="none" 
	d="
M464.582153,189.336792 
	C441.666351,183.910187 418.900970,180.147827 395.806213,178.615570 
	C391.227142,178.311768 389.823029,177.720428 391.640808,172.412598 
	C397.406708,155.576675 403.807770,139.077103 413.634827,124.176323 
	C419.980469,114.554398 418.126526,115.574677 425.859222,122.152893 
	C444.811707,138.275757 467.210266,170.126694 475.230103,192.042374 
	C471.615692,191.129578 468.298035,190.291733 464.582153,189.336792 
z"/>
<path fill="#000" opacity="1.000000" stroke="none" 
	d="
M187.542664,457.452423 
	C159.754593,442.114105 135.409592,423.422180 118.538536,396.346710 
	C114.072014,389.178619 110.384834,381.612732 108.029518,372.746216 
	C115.613350,377.018280 122.497543,381.133575 129.593369,384.844147 
	C144.479431,392.628387 160.074905,398.684875 176.188919,403.434906 
	C179.528687,404.419403 182.719101,405.857819 186.213440,406.387909 
	C188.345184,406.711304 189.727036,407.964417 190.022827,410.351044 
	C192.184906,427.795776 195.646790,444.993195 199.987183,462.020294 
	C200.059937,462.305695 199.884201,462.654449 199.760391,463.315582 
	C195.430176,462.086823 191.774506,459.570526 187.542664,457.452423 
z"/>
<path fill="#000" opacity="1.000000" stroke="none" 
	d="
M473.781006,511.768494 
	C468.322235,526.303406 460.091309,539.146423 451.201355,551.582825 
	C444.315033,561.216309 436.328278,569.893372 427.765015,578.085144 
	C424.390747,581.313049 422.561523,580.896423 419.867920,577.236755 
	C408.048645,561.178345 399.754059,543.414001 393.196136,523.960510 
	C420.477234,521.989563 447.214539,518.100769 473.781006,511.768494 
z"/>
<path fill="#000" opacity="1.000000" stroke="none" 
	d="
M577.531494,273.469055 
	C590.737793,285.893005 601.720642,299.487030 608.788757,316.527710 
	C606.116028,316.519073 604.909729,314.722687 603.346191,313.765930 
	C580.928589,300.048645 556.666687,290.732544 531.483521,283.637390 
	C529.789062,283.160034 528.760315,282.413483 528.486633,280.823303 
	C525.899353,265.793793 522.852539,250.859299 518.686829,235.229279 
	C540.607300,245.382507 560.145386,257.430573 577.531494,273.469055 
z"/>
<path fill="#000" opacity="1.000000" stroke="none" 
	d="
M124.455269,307.348694 
	C120.683601,309.481934 117.231834,311.424744 113.780067,313.367584 
	C113.496773,313.023834 113.213486,312.680084 112.930199,312.336365 
	C131.760910,275.185455 164.145355,253.306503 201.170288,235.096817 
	C197.286560,250.311447 193.957123,264.594055 191.819611,279.126312 
	C191.475204,281.467896 189.630280,282.580811 187.301056,283.160461 
	C166.126770,288.430023 145.971649,296.437408 126.415955,306.026855 
	C125.825951,306.316162 125.320198,306.777283 124.455269,307.348694 
z"/>
<path fill="#000" opacity="1.000000" stroke="none" 
	d="
M187.166870,314.663879 
	C186.256821,334.609833 185.164749,354.294250 186.865021,374.433105 
	C185.879303,376.131226 184.590607,376.021667 183.268906,375.559875 
	C164.227478,368.907043 145.298645,362.003479 128.351959,350.718903 
	C127.937378,350.442810 127.497215,350.204590 127.099899,349.903107 
	C121.424133,345.596405 121.720123,342.341919 127.909508,338.711334 
	C143.316238,329.674103 159.570831,322.464233 176.394958,316.596954 
	C179.664017,315.456940 183.063004,313.538574 187.166870,314.663879 
z"/>
<path fill="#000" opacity="1.000000" stroke="none" 
	d="
M563.705322,363.562927 
	C554.512573,367.459381 545.683167,371.240326 536.408020,373.917694 
	C533.266479,374.824554 533.007324,373.651825 533.175293,371.228149 
	C534.397522,353.590271 533.633240,335.970154 532.590698,318.359253 
	C532.408386,315.279297 533.549622,315.077881 536.076782,315.855438 
	C552.770813,320.991638 568.845093,327.545013 583.849854,336.556976 
	C586.826904,338.345001 589.655457,340.380463 592.550049,342.305511 
	C595.027344,343.953033 594.753662,345.475769 592.535583,347.229248 
	C586.379883,352.095428 579.494446,355.751465 572.608398,359.399078 
	C569.827698,360.872040 566.886902,362.042603 563.705322,363.562927 
z"/>
<path fill="#A79C44" opacity="1.000000" stroke="none" 
	d="
M354.047607,498.840027 
	C355.043274,496.108154 354.154755,493.409851 353.671997,490.892731 
	C351.458527,479.350952 348.794586,467.893494 346.694702,456.332703 
	C345.271851,448.499237 344.307892,440.564301 343.555969,432.635193 
	C343.212006,429.008331 341.873688,427.782166 338.300903,427.879150 
	C318.983643,428.403564 299.756897,426.833466 280.606537,424.590881 
	C260.196075,422.200714 239.716309,420.095795 219.753937,414.839691 
	C219.123077,414.673584 218.434647,414.726013 217.391846,414.845612 
	C217.144073,412.225830 219.350403,412.949066 220.721283,413.165009 
	C228.051315,414.319824 235.374344,415.559906 242.637985,417.068146 
	C244.559631,417.467194 246.430908,418.163055 248.428986,418.368622 
	C260.109955,419.570618 271.986237,419.870850 283.413513,422.287231 
	C297.434174,425.252014 311.577362,423.038239 325.536804,425.053680 
	C330.454224,425.763672 335.451813,425.935364 340.417236,426.290955 
	C344.414856,426.577271 346.415253,428.760620 346.646362,432.661346 
	C346.774109,434.817932 346.895996,436.982666 346.851654,439.140289 
	C346.662628,448.333435 350.057281,456.915314 351.289246,465.835327 
	C352.197601,472.412201 353.971405,478.788300 354.817291,485.333893 
	C355.220734,488.455994 355.230499,491.525330 356.768890,494.462280 
	C357.880096,496.583618 358.578827,499.242126 354.047607,498.840027 
z"/>
<path fill="#605A27" opacity="1.000000" stroke="none" 
	d="
M384.726318,203.734222 
	C381.714813,212.775513 381.655212,222.402908 379.130371,231.392960 
	C376.737946,239.911514 377.679169,248.899963 374.420471,257.188019 
	C373.412323,259.752167 374.432190,261.261169 377.498505,261.149811 
	C380.986725,261.023132 384.502808,261.415375 387.975891,261.160645 
	C404.356384,259.959259 420.459045,263.177887 436.611908,264.713257 
	C444.645935,265.476898 452.865234,265.464203 460.814423,267.166290 
	C472.236389,269.611908 483.890778,270.859589 495.190125,273.939636 
	C496.750732,274.365082 498.480347,274.170593 500.545654,274.119141 
	C501.526703,276.054657 500.710480,276.757477 498.656982,276.381500 
	C489.850677,274.769257 481.068115,272.997131 472.222290,271.638977 
	C462.384338,270.128479 452.474701,269.091644 442.618225,267.693726 
	C421.163330,264.650757 399.507294,264.632324 377.938232,263.329895 
	C373.545471,263.064636 372.381042,261.288544 372.668549,257.019226 
	C373.340759,247.038177 375.795319,237.409027 377.492462,227.625061 
	C378.626221,221.089096 380.496521,214.686035 381.113495,208.061920 
	C381.316040,205.887161 381.220886,203.508530 384.726318,203.734222 
z"/>
<path fill="#A29742" opacity="1.000000" stroke="none" 
	d="
M187.618103,314.626587 
	C178.875610,316.140228 171.012085,319.689240 163.011780,322.694336 
	C151.381989,327.062714 140.330948,332.700562 129.627670,339.016663 
	C121.895012,343.579803 121.627243,345.431122 129.074722,350.086243 
	C140.460190,357.202820 152.448212,363.126617 165.093781,367.809265 
	C172.061722,370.389465 179.049545,372.846893 186.510132,374.951538 
	C185.710037,379.007355 182.719467,376.706696 180.936050,376.076660 
	C171.789993,372.845734 162.570038,369.690125 153.767807,365.653625 
	C142.683548,360.570648 131.492676,355.546112 122.128654,347.332916 
	C119.773056,345.266815 119.896530,344.261688 121.954468,342.315796 
	C128.051605,336.550629 135.567337,333.033691 142.850845,329.274719 
	C150.167038,325.498901 157.836700,322.365570 165.492996,319.304779 
	C171.421417,316.934753 177.535690,315.005127 183.644241,313.130249 
	C184.918121,312.739288 187.036392,311.804565 187.618103,314.626587 
z"/>
<path fill="#605A27" opacity="1.000000" stroke="none" 
	d="
M594.917297,254.464874 
	C595.186584,253.931625 595.544006,253.681747 596.053101,253.129913 
	C597.126038,253.249039 597.127319,254.156021 597.373901,255.270508 
	C597.408142,255.753067 597.397766,255.922150 597.133972,256.110901 
	C596.255554,255.669800 595.630493,255.209030 594.917297,254.464874 
z"/>
<path fill="#000" opacity="1.000000" stroke="none" 
	d="
M122.039230,442.959717 
	C120.976028,442.790466 120.839447,442.176971 121.320892,441.439819 
	C121.351273,441.393280 121.964813,441.727600 122.476608,442.121033 
	C122.512108,442.492004 122.378044,442.626678 122.039230,442.959717 
z"/>
<path fill="#000" opacity="1.000000" stroke="none" 
	d="
M124.382088,254.417236 
	C124.196526,255.022934 123.986710,255.920334 123.232315,255.387039 
	C123.019379,255.236526 123.217346,254.504715 123.466293,253.878296 
	C123.856956,253.871765 124.008202,254.026459 124.382088,254.417236 
z"/>
<path fill="#000" opacity="1.000000" stroke="none" 
	d="
M456.949493,587.000305 
	C456.736664,588.018555 456.062164,588.259094 455.251068,587.799377 
	C455.186035,587.762512 455.482880,587.087280 455.869720,586.528931 
	C456.312225,586.491455 456.496643,586.633911 456.949493,587.000305 
z"/>
<path fill="#605A27" opacity="1.000000" stroke="none" 
	d="
M597.282837,255.719421 
	C597.530945,255.926453 597.643372,256.268921 597.755737,256.611420 
	C597.533203,256.608063 597.310608,256.604706 596.984375,256.365967 
	C596.880615,256.130554 597.147156,255.854889 597.282837,255.719421 
z"/>
<path fill="#000" opacity="1.000000" stroke="none" 
	d="
M244.973541,509.028137 
	C244.656052,508.893524 244.478226,508.622986 244.300400,508.352478 
	C244.546310,508.314819 244.792221,508.277161 245.215454,508.430176 
	C245.392792,508.620789 245.113205,508.892242 244.973541,509.028137 
z"/>
<path fill="#000" opacity="1.000000" stroke="none" 
	d="
M474.163574,512.079163 
	C474.106506,511.896637 474.010956,511.701019 473.915405,511.505371 
	C474.061096,511.602478 474.206818,511.699554 474.202484,511.913055 
	C474.052429,512.029480 474.125092,512.066040 474.163574,512.079163 
z"/>
</svg>